# xmcd
#
# Track frame offsets:
#	150
#	12139
#	26054
#	40156
#
# Disc length: 705 seconds
#
# Revision: 0
# Processed by: cddbd v1.5.2PL0 Copyright (c) Steve Scherf et al.
# Submitted via: audiograbber 1.83.01
#
DISCID=2502bf04
DTITLE=D Kapuziner - Die jungen wilden von Wartenberg
DYEAR=2000
DGENRE=Volksmusik
TTITLE0=Hey, Hey - hey und Schalala
TTITLE1=Wenn in den Bergen die Sonn' aufgeht
TTITLE2=Bei dir bin ich zu Hause
TTITLE3=Mich freut das Leben
EXTD=<http://www.hit-radio24.de>
EXTT0=
EXTT1=
EXTT2=
EXTT3=
PLAYORDER=
